# xmcd
#
# Track frame offsets: 
#        150
#        13201
#        24488
#        29369
#        41805
#        54785
#        66098
#        83821
#        92489
#        99327
#        111825
#        173189
#        193444
#        197731
#        209767
#        223936
#        240206
#        246139
#        256586
#        270389
#        279506
#        292904
#        303659
#
# Disc length: 4398 seconds
#
# Revision: 0
# Processed by: cddbd v1.5.2PL0 Copyright (c) Steve Scherf et al.
# Submitted via: ExactAudioCopy v0.95b3
#
DISCID=47112c17
DTITLE=The Beatles  - Here They're Everywhere - Demos, Outtakes and Rari
DTITLE=ties
DYEAR=1900
DGENRE=
TTITLE0=Hold Me Tight, Takes 22-24
TTITLE1=I Want To Tell You
TTITLE2=She Said She Said (Studio Demo take 3)
TTITLE3=Honey Pie
TTITLE4=To Know Her Is To Love Her
TTITLE5=Here Today
TTITLE6=Los Paranoias (Outtake)
TTITLE7=You Know It Makes Sense
TTITLE8=Step Inside Love (From Take 35 Of 'I Will')
TTITLE9=Happiness Is A Warm Gun
TTITLE10=Kenny Everett (68.06.06)
TTITLE11=A Day In The Life
TTITLE12=Track 06That Means A Lot (Test)
TTITLE13=That Means A Lot (Take 1)
TTITLE14=Rip It Up-Shake, Rattle and Roll-Blue Suede Shoes
TTITLE15=Not Guilty
TTITLE16=I Wanna Hold Your Hand
TTITLE17=Eleanor Rigby (With Paul's Intro)
TTITLE18=Rain
TTITLE19=Glad All Over
TTITLE20=I Saw Her Standing There (handclap intro)
TTITLE21=Bad Boy
TTITLE22=Be My Baby
EXTD=
EXTT0=
EXTT1=
EXTT2=
EXTT3=
EXTT4=
EXTT5=
EXTT6=
EXTT7=
EXTT8=
EXTT9=
EXTT10=
EXTT11=
EXTT12=
EXTT13=
EXTT14=
EXTT15=
EXTT16=
EXTT17=
EXTT18=
EXTT19=
EXTT20=
EXTT21=
EXTT22=
PLAYORDER=
